<svg xmlns="http://www.w3.org/2000/svg" xmlns:xlink="http://www.w3.org/1999/xlink" version="1.1" x="0px" y="0px" viewBox="0 0 1024 1280" style="enable-background:new 0 0 1024 1024;" xml:space="preserve"><g><path d="M575.4,767.6c0,16.9-6.6,32.8-18.6,44.8c-12,12-27.9,18.6-44.8,18.6s-32.8-6.6-44.8-18.6c-12-12-18.6-27.9-18.6-44.8   c0-16.9,6.6-32.8,18.6-44.8c12-12,27.9-18.6,44.8-18.6s32.8,6.6,44.8,18.6c6,6,10.6,13,13.8,20.5   C573.7,751,575.4,759.2,575.4,767.6z"/><path d="M622.1,657.5c-29.4-29.4-68.5-45.6-110.1-45.6s-80.7,16.2-110.1,45.6l-42.4-42.4c40.7-40.7,94.9-63.2,152.5-63.2   c57.6,0,111.8,22.4,152.5,63.2L622.1,657.5z"/><path d="M747.1,532.6c-129.6-129.6-340.6-129.6-470.2,0l-42.4-42.4c37.5-37.5,81.1-66.5,129.8-86.2c47-19.1,96.7-28.7,147.7-28.7   s100.6,9.7,147.7,28.7c48.7,19.8,92.4,48.8,129.8,86.2L747.1,532.6z"/><path d="M875.9,403.7C778.7,306.5,649.5,253,512,253c-137.5,0-266.7,53.5-363.9,150.7l-42.4-42.4c54.8-54.8,118.8-97.3,190.1-126.2   C364.6,207.1,437.4,193,512,193c74.6,0,147.4,14.2,216.2,42.1c71.3,28.9,135.3,71.4,190.1,126.2L875.9,403.7z"/></g><text x="0" y="1039" fill="#000000" font-size="5px" font-weight="bold" font-family="'Helvetica Neue', Helvetica, Arial-Unicode, Arial, Sans-serif">Created by IconPai</text><text x="0" y="1044" fill="#000000" font-size="5px" font-weight="bold" font-family="'Helvetica Neue', Helvetica, Arial-Unicode, Arial, Sans-serif">from the Noun Project</text></svg>