<svg id="Layer_35" enable-background="new 0 0 64 64" height="512" viewBox="0 0 64 64" width="512" xmlns="http://www.w3.org/2000/svg"><path d="m58 2h-42c-2.21 0-4 1.79-4 4v14 14c0 2.21 1.79 4 4 4h42c2.21 0 4-1.79 4-4v-28c0-2.21-1.79-4-4-4z" fill="#b4dd7f"/><g fill="#aab2bd"><path d="m58 22v11c0 .55-.45 1-1 1h-5v-12z"/><path d="m22 22v12h-5c-.55 0-1-.45-1-1v-11z"/><path d="m34 22v12h-4.35-.01c-.34-.72-.92-1.3-1.64-1.64v-.01-10.35z"/><path d="m46 22h6v12h-6z"/><path d="m40 22h6v12h-6z"/><path d="m34 22h6v12h-6z"/><path d="m28 22v10.35.01c-.47-.23-.99-.36-1.54-.36h-.15c-.85 0-1.66.3-2.3.85l-1.34 1.15h-.67v-12z"/><path d="m58 7v11h-6v-12h5c.55 0 1 .45 1 1z"/><path d="m46 6h6v12h-6z"/><path d="m40 6h6v12h-6z"/><path d="m28 6h6v12h-6z"/><path d="m22 6v12h-6v-11c0-.55.45-1 1-1z"/><path d="m34 6h6v12h-6z"/><path d="m22 6h6v12h-6z"/></g><path d="m58 18v4h-6-6-6-6-6-6-6v-4h6 6 6 6 6 6z" fill="#e6e9ed"/><path d="m22 52v10h-20v-10h2 16z" fill="#ff826e"/><path d="m29 38c-.01.01-.03.03-.04.04l-7.79 7.79c-.75.75-1.17 1.77-1.17 2.83v3.34h-16v-19.03c0-3.18 1.26-6.23 3.52-8.49l4.48-4.48v14c0 2.21 1.79 4 4 4 1.29 0 2.54-.46 3.52-1.3l3.15-2.7 1.34-1.15c.64-.55 1.45-.85 2.3-.85h.15c.55 0 1.07.13 1.54.36.72.34 1.3.92 1.64 1.64.23.47.36.99.36 1.54 0 .91-.36 1.8-1 2.46z" fill="#f0d0b4"/><path d="m56 43 5 8h-3v12h-4v-12h-3z" fill="#ffeaa7"/><path d="m47 53-5 8-5-8h3v-12h4v12z" fill="#ffeaa7"/><path d="m53 59h2v2h-2z"/><path d="m49.195 52h3.805v5h2v-7h-2.195l3.195-5.113 3.195 5.113h-2.195v13h2v-11h3.805l-6.805-10.887z"/><path d="m43 43h2v2h-2z"/><path d="m45 47h-2v7h2.195l-3.195 5.113-3.195-5.113h2.195v-13h-2v11h-3.805l6.805 10.887 6.805-10.887h-3.805z"/><path d="m58 1h-42c-2.757 0-5 2.243-5 5v13.586l-4.191 4.192c-2.456 2.455-3.809 5.721-3.808 9.193l.002 18.029h-2.003v12h22v-12h-2v-2.343c0-.79.32-1.562.879-2.121l7.536-7.536h28.585c2.757 0 5-2.243 5-5v-28c0-2.757-2.243-5-5-5zm-37 60h-18v-8h18zm7.258-23.671-7.793 7.793c-.944.944-1.465 2.2-1.465 3.535v2.343h-13.997l-.002-18.029c-.001-2.938 1.144-5.701 3.222-7.779l2.777-2.778v11.586c0 2.757 2.243 5 5 5 1.528 0 3.01-.548 4.169-1.542l4.489-3.847c.458-.394 1.044-.61 1.649-.61h.157c1.398-.001 2.536 1.137 2.536 2.535 0 .677-.264 1.314-.742 1.793zm10.742-14.329v10h-4v-10zm2 0h4v10h-4zm6 0h4v10h-4zm6 0h4v10h-4zm4-6h-4v-10h4zm-6 0h-4v-10h4zm-6 0h-4v-10h4zm-6 0h-4v-10h4zm-6 0h-4v-10h4zm-6 0h-4v-10h4zm-6 0h-4v-10h4zm-4 2h40v2h-40zm9.465 12h-.157c-1.082 0-2.131.388-2.951 1.092l-.357.305v-9.397h4v8.054c-.178-.021-.352-.054-.535-.054zm-9.465-8h4v10h-4zm12 8.777v-8.777h4v10h-2.777c-.326-.482-.741-.897-1.223-1.223zm32 2.223c0 1.654-1.346 3-3 3h-27.24c.158-.465.24-.958.24-1.464 0-.183-.033-.358-.054-.536h26.054c1.103 0 2-.897 2-2v-26c0-1.103-.897-2-2-2h-40c-1.103 0-2 .897-2 2v26c0 1.103.897 2 2 2h2.963l-1.096.939c-.798.684-1.815 1.061-2.867 1.061-1.654 0-3-1.346-3-3v-28c0-1.654 1.346-3 3-3h42c1.654 0 3 1.346 3 3z"/></svg>