<svg xmlns="http://www.w3.org/2000/svg" viewBox="0 0 100 125" x="0px" y="0px"><g fill="#000000" fill-rule="evenodd"><path d="M13,31 C13,25.4771525 29.5654643,21 50,21 C70.4345357,21 87,25.4771525 87,31 C87.0092989,34.3347983 86.7212424,37.6909703 86.1700425,41.0053297 C86.2795681,41.0017852 86.389564,41 86.5,41 C91.7467051,41 96,45.0294373 96,50 C96,54.9705627 91.7467051,59 86.5,59 C84.513853,59 82.6700628,58.4225773 81.1454677,57.435263 C80.0650337,59.8018956 78.8539831,62.0737052 77.5284518,64.2191346 C88.1573634,67.1457092 95,71.7272331 95,76.877 C95,85.713556 74.8528137,92.877 50,92.877 C25.1471863,92.877 5,85.713556 5,76.877 C5,71.7183707 11.8662082,67.1299419 22.5264565,64.2040401 C16.6259725,54.699681 12.9740134,42.7178912 13,31 Z M16,76.5 C16,81 29.7253362,88 50,88 C70.2746638,88 84,81 84,76.5 C84,74.1279491 80.186305,71.6169693 73.6099506,69.772619 C67.1492557,77.7858656 58.8914383,83 50.0713573,83 C41.2442179,83 32.9526163,77.777517 26.4588516,69.7533757 C19.8403018,71.5994798 16,74.119689 16,76.5 Z M86.5,55 C89.5375661,55 92,52.7614237 92,50 C92,47.2385763 89.5375661,45 86.5,45 C86.1053116,45 85.7203333,45.0377945 85.3492055,45.1096198 C84.6679915,48.0231894 83.7883722,50.8826845 82.7332279,53.6433579 C83.7174087,54.4846062 85.0424972,55 86.5,55 Z M50,37 C66.5685425,37 80,34.6421356 80,30.5 C80,26.3578644 66.5685425,23 50,23 C33.4314575,23 20,26.3578644 20,30.5 C20,34.6421356 33.4314575,37 50,37 Z"/><g transform="matrix(-1 0 0 1 62.5 2)"><path d="M2.15093707 5.74390381C2.22923351 6.63883623 3.71971083 8.02913029 4.3912936 8.61335474L3.05090564 10.2107669C2.6763234 9.86605724.307806363 7.62424991.158547675 5.9182153-.00356197686 4.0652935 2.15356412 1.5224106 2.3157896 1.28533306 2.77636405.612246056 4.59538014 1.47816537 4.12840517 2.13056958 3.93168534 2.40540411 2.04969512 4.58670304 2.15093707 5.74390381zM5.29218504 13.079118C5.2138886 12.1841856 3.72341128 10.7938915 3.05182851 10.2096671L4.39221648 8.6122549C4.76679871 8.95696457 7.13531575 11.1987719 7.28457444 12.9048065 7.44668409 14.7577283 5.28955799 17.3006112 5.12733252 17.5376887 4.66675807 18.2107758 2.84774197 17.3448564 3.31471694 16.6924522 3.51143677 16.4176177 5.39342699 14.2363188 5.29218504 13.079118zM10.1509371 4.74390381C10.2292335 5.63883623 11.7197108 7.02913029 12.3912936 7.61335474L11.0509056 9.21076691C10.6763234 8.86605724 8.30780636 6.62424991 8.15854767 4.9182153 7.99643802 3.0652935 10.1535641.522410599 10.3157896.28533306 10.776364-.387753944 12.5953801.478165369 12.1284052 1.13056958 11.9316853 1.40540411 10.0496951 3.58670304 10.1509371 4.74390381zM13.292185 12.079118C13.2138886 11.1841856 11.7234113 9.79389152 11.0518285 9.20966707L12.3922165 7.6122549C12.7667987 7.95696457 15.1353158 10.1987719 15.2845744 11.9048065 15.4466841 13.7577283 13.289558 16.3006112 13.1273325 16.5376887 12.6667581 17.2107758 10.847742 16.3448564 11.3147169 15.6924522 11.5114368 15.4176177 13.393427 13.2363188 13.292185 12.079118zM18.1509371 5.74390381C18.2292335 6.63883623 19.7197108 8.02913029 20.3912936 8.61335474L19.0509056 10.2107669C18.6763234 9.86605724 16.3078064 7.62424991 16.1585477 5.9182153 15.996438 4.0652935 18.1535641 1.5224106 18.3157896 1.28533306 18.776364.612246056 20.5953801 1.47816537 20.1284052 2.13056958 19.9316853 2.40540411 18.0496951 4.58670304 18.1509371 5.74390381zM21.292185 13.079118C21.2138886 12.1841856 19.7234113 10.7938915 19.0518285 10.2096671L20.3922165 8.6122549C20.7667987 8.95696457 23.1353158 11.1987719 23.2845744 12.9048065 23.4466841 14.7577283 21.289558 17.3006112 21.1273325 17.5376887 20.6667581 18.2107758 18.847742 17.3448564 19.3147169 16.6924522 19.5114368 16.4176177 21.393427 14.2363188 21.292185 13.079118z"/></g></g><text x="0" y="115" fill="#000000" font-size="5px" font-weight="bold" font-family="'Helvetica Neue', Helvetica, Arial-Unicode, Arial, Sans-serif">Created by Peter Emil van den Berg</text><text x="0" y="120" fill="#000000" font-size="5px" font-weight="bold" font-family="'Helvetica Neue', Helvetica, Arial-Unicode, Arial, Sans-serif">from the Noun Project</text></svg>