<svg xmlns="http://www.w3.org/2000/svg" data-name="Layer 1" viewBox="0 0 80 100" x="0px" y="0px"><title>Artboard 5@5x</title><path d="M59.45,11.65H20.55a1,1,0,0,0-1,1V15.4a1,1,0,0,0,1,1h38.9a1,1,0,0,0,1-1V12.69A1,1,0,0,0,59.45,11.65Z"/><path d="M59.45,30.42H20.55a1,1,0,0,0-1,1v2.71a1,1,0,0,0,1,1H21V62.6h-.44a1,1,0,0,0-1,1v2.71a1,1,0,0,0,1,1h38.9a1,1,0,0,0,1-1V63.64a1,1,0,0,0-1-1H59V35.21h.44a1,1,0,0,0,1-1V31.46A1,1,0,0,0,59.45,30.42ZM36.28,38.1h7.44a2.56,2.56,0,0,0,2.56-2.56v-.33H58V62.6H48.78l-1.21-2.51h-13L33.35,62.6H22V35.21H33.72v.33A2.56,2.56,0,0,0,36.28,38.1Z"/><path d="M54.36,7.5H25.65a4.64,4.64,0,0,0-3.92,2.15H58.27A4.64,4.64,0,0,0,54.36,7.5Z"/><path d="M40.65,23.43V20.82a.5.5,0,0,0-.5-.5.5.5,0,0,0-.5.5v2.61a.5.5,0,0,0,.5.5A.5.5,0,0,0,40.65,23.43Z"/><path d="M37.62,18.44H21v10H37.6a5.59,5.59,0,0,1,0-10ZM29.84,26.9H26.48v-1h3.36Zm0-3H26.48v-1h3.36Zm0-3H26.48V20h3.36Z"/><path d="M42.7,28.42H59v-10H42.68a5.6,5.6,0,0,1,0,10ZM50.16,20h3.37v1H50.16Zm0,3h3.37v1H50.16Zm0,3h3.37v1H50.16Z"/><path d="M29.88,42a4,4,0,0,0,2.81,3.81l1.86,12.29h13l1.83-12.27h1.2A.6.6,0,0,1,51,46a.57.57,0,0,1,.13.47l-1.24,7.75a.51.51,0,0,0,.42.57h.08a.49.49,0,0,0,.49-.42l1.24-7.75a1.59,1.59,0,0,0-1.57-1.84H49.51l.69-4.6H29.88Z"/><path d="M24.74,72.5H55.26A3.76,3.76,0,0,0,59,69.39H21.05A3.76,3.76,0,0,0,24.74,72.5Z"/><text x="0" y="95" fill="#000000" font-size="5px" font-weight="bold" font-family="'Helvetica Neue', Helvetica, Arial-Unicode, Arial, Sans-serif">Created by Lars Meiertoberens</text><text x="0" y="100" fill="#000000" font-size="5px" font-weight="bold" font-family="'Helvetica Neue', Helvetica, Arial-Unicode, Arial, Sans-serif">from the Noun Project</text></svg>