<svg xmlns="http://www.w3.org/2000/svg" xmlns:xlink="http://www.w3.org/1999/xlink" xml:space="preserve" version="1.1" style="shape-rendering:geometricPrecision;text-rendering:geometricPrecision;image-rendering:optimizeQuality;" viewBox="0 0 193.12 302.4125" x="0px" y="0px" fill-rule="evenodd" clip-rule="evenodd"><defs><style type="text/css">
   
    .fil0 {fill:black}
   
  </style></defs><g><path class="fil0" d="M3.2 211.19c15.26,0 30.53,0.01 45.78,0.04 -8.83,-6.26 -14.61,-16.56 -14.61,-28.14l0 -54.07 124.38 0 0 3.87c21.22,-12.5 43.65,8 27.49,33.59 -7.73,10.86 -21.59,15.24 -28.54,25.06l0 0c-2.07,8.16 -7.08,15.19 -13.82,19.87 15.35,0.02 30.7,0.04 46.04,0.04 2.94,0 3.83,2.11 2.77,3.7 -8.97,13.48 -20.45,22.28 -34.06,26.79l-124.15 -0.26c-13.61,-4.5 -25.08,-13.31 -34.06,-26.79 -1.06,-1.59 -0.17,-3.7 2.77,-3.7zm42.91 -72.73l7.62 0c-2.74,24.74 -0.06,49.92 8.19,58.74 -15.08,-1.22 -16.94,-34.75 -15.81,-58.74zm47.74 -138.45c-3.39,50.86 54.9,51.35 24.29,109.61 4.15,-56.68 -52.34,-51.55 -24.29,-109.61zm-21.96 28.91c-2.52,37.74 40.75,38.11 18.03,81.35 3.08,-42.07 -38.84,-38.26 -18.03,-81.35zm88.55 112.93c12.19,-12.72 29.73,-0.72 20.83,16.21 -5.69,7.99 -17.01,12.96 -21.52,19.74l0.69 -35.95z"/></g><text x="0" y="256.93" fill="#000000" font-size="5px" font-weight="bold" font-family="'Helvetica Neue', Helvetica, Arial-Unicode, Arial, Sans-serif">Created by Katariana</text><text x="0" y="261.93" fill="#000000" font-size="5px" font-weight="bold" font-family="'Helvetica Neue', Helvetica, Arial-Unicode, Arial, Sans-serif">from the Noun Project</text></svg>