<?xml version="1.0" encoding="iso-8859-1"?>
<!-- Generator: Adobe Illustrator 16.0.0, SVG Export Plug-In . SVG Version: 6.00 Build 0)  -->
<!DOCTYPE svg PUBLIC "-//W3C//DTD SVG 1.1//EN" "http://www.w3.org/Graphics/SVG/1.1/DTD/svg11.dtd">
<svg version="1.1" id="Capa_1" xmlns="http://www.w3.org/2000/svg" xmlns:xlink="http://www.w3.org/1999/xlink" x="0px" y="0px"
	 width="30.965px" height="30.966px" viewBox="0 0 30.965 30.966" style="enable-background:new 0 0 30.965 30.966;"
	 xml:space="preserve">
<g>
	<path d="M23.503,11.863c0.06-0.286-0.117-0.598-0.706-0.727c-0.073-0.775-1.364-2.324-2.178-1.181c-0.11-0.479-0.788-1.067-1.475,0
		c0.072-1.586-1.439-2.435-3.139-1.181c-0.257-0.553-2.064-0.612-2.064,1.181c-0.369-0.557-1.55-0.553-1.771,0
		c-0.222,0.554,0.147,1.07,0.517,1.476c-0.314,0.076-0.545,0.237-0.718,0.432H9.723L20.396,1.189
		c-1.585-1.585-4.181-1.586-5.767-0.001l-0.856,0.856c-0.724-0.268-1.571-0.116-2.15,0.462L7.298,6.832
		C6.719,7.41,6.568,8.258,6.835,8.982L5.98,9.838c-1.586,1.585-1.585,4.18,0.001,5.766l2.284-2.284v14.063
		c0,1.971,1.611,3.582,3.582,3.582h10.745c1.972,0,3.582-1.611,3.582-3.582V11.863H23.503z M13.637,27.385
		c0,0.66-0.534,1.194-1.194,1.194c-0.659,0-1.193-0.535-1.193-1.194V15.445c0-0.659,0.534-1.194,1.193-1.194
		c0.66,0,1.194,0.535,1.194,1.194V27.385z M18.415,27.385c0,0.66-0.534,1.194-1.194,1.194c-0.66,0-1.194-0.535-1.194-1.194V15.445
		c0-0.659,0.534-1.194,1.194-1.194c0.66,0,1.194,0.535,1.194,1.194V27.385z M23.19,27.385c0,0.66-0.534,1.194-1.193,1.194
		c-0.66,0-1.194-0.535-1.194-1.194V15.445c0-0.659,0.534-1.194,1.194-1.194c0.659,0,1.193,0.535,1.193,1.194V27.385z"/>
</g>
<g>
</g>
<g>
</g>
<g>
</g>
<g>
</g>
<g>
</g>
<g>
</g>
<g>
</g>
<g>
</g>
<g>
</g>
<g>
</g>
<g>
</g>
<g>
</g>
<g>
</g>
<g>
</g>
<g>
</g>
</svg>
