<svg xmlns:dc="http://purl.org/dc/elements/1.1/" xmlns:cc="http://creativecommons.org/ns#" xmlns:rdf="http://www.w3.org/1999/02/22-rdf-syntax-ns#" xmlns:svg="http://www.w3.org/2000/svg" xmlns="http://www.w3.org/2000/svg" xmlns:sodipodi="http://sodipodi.sourceforge.net/DTD/sodipodi-0.dtd" xmlns:inkscape="http://www.inkscape.org/namespaces/inkscape" version="1.1" x="0px" y="0px" viewBox="0 0 100 125"><g transform="translate(0,-952.36218)"><path style="text-indent:0;text-transform:none;direction:ltr;block-progression:tb;baseline-shift:baseline;color:#000000;enable-background:accumulate;" d="m 69.004393,968.86187 c -6.99819,11 -9.99741,16 -30.99199,15 -2.99923,0 -7.99794,0 -7.99794,5 1.99949,7 10.7854,2.54909 20.99458,2 3.99897,0 7.99794,1 7.99794,4 3.99896,-3 2.99922,-7 -7.99794,-7 -6.99819,1 -15.99587,3 -15.99587,1 0,-2 0,-3 2.99923,-3 20.99458,1 27.99277,-5 30.99199,-17 z m -50.98683,29 c 0,12.72673 4.39252,21.08933 10.49729,26.15623 2.64379,2.1944 5.59063,3.7607 8.62277,4.8438 -7.40217,0 -14.81753,0 -22.213009,0 -0.42678,0.031 -0.81321,0.3673 -0.90383,0.7856 -0.0906,0.4184 0.12217,0.8841 0.49769,1.0894 l 4.998709,3 c 0.15198,0.084 0.32617,0.1277 0.49987,0.125 l 7.34185,0 0.74981,1.4687 c 0.17268,0.3257 0.53754,0.5397 0.90601,0.5313 l 38.98993,0 c 0.26399,0.01 0.52884,-0.098 0.71857,-0.2813 l 1.7183,-1.7187 5.56107,0 c 0.15036,0 0.30112,-0.03 0.43738,-0.094 l 5.99845,-3 c 0.41065,-0.1917 0.65303,-0.6882 0.55165,-1.13 -0.10137,-0.4418 -0.53591,-0.7829 -0.98903,-0.7763 l -22.08805,0 c 2.79288,-1.0901 5.51758,-2.6759 7.99794,-4.875 2.18132,-1.9339 4.16589,-4.3389 5.84224,-7.2812 2.90603,-0.5423 5.79594,-1.49 8.06042,-3 2.42005,-1.6138 4.18641,-3.9437 4.18641,-6.8437 0,-1.8334 -0.97464,-3.4138 -2.43687,-4.4376 -1.30752,-0.9155 -2.98333,-1.4298 -4.87374,-1.5312 0.12329,-0.9612 0.23109,-1.9519 0.31242,-2.96878 0.034,-0.54402 -0.4548,-1.06351 -0.99974,-1.0625 l -58.98477,0 c -0.99974,-5e-5 -0.99974,0.99995 -0.99974,0.99995 z m 2.09321,1 56.73535,0 c -1.14914,11.62223 -5.13536,19.09273 -10.24735,23.62503 -5.28361,4.6844 -11.78515,6.375 -17.58921,6.375 -6.31888,0 -13.60284,-1.7232 -19.24503,-6.4063 -5.47366,-4.5431 -9.41729,-11.9536 -9.65376,-23.59373 z m 58.29745,4.03123 c 1.65145,0.065 3.07336,0.4863 4.0302,1.1563 1.03714,0.7261 1.5621,1.6458 1.5621,2.8125 0,2.1 -1.23286,3.77 -3.31164,5.1563 -1.57356,1.0493 -3.60152,1.8634 -5.74852,2.4062 1.5369,-3.2537 2.73523,-7.0787 3.46786,-11.5313 z m -59.8283,27.9688 59.2347,0 -1.99948,1 -5.811,0 c -0.26837,0 -0.53406,0.1175 -0.71857,0.3125 l -1.68706,1.6875 -37.95895,0 -0.71856,-1.4375 c -0.16404,-0.3372 -0.53112,-0.5651 -0.90602,-0.5625 l -7.748,0 z" fill="#000000" fill-opacity="1" stroke="none" marker="none" visibility="visible" display="inline" overflow="visible"/></g><text x="0" y="115" fill="#000000" font-size="5px" font-weight="bold" font-family="'Helvetica Neue', Helvetica, Arial-Unicode, Arial, Sans-serif">Created by AFY Studio</text><text x="0" y="120" fill="#000000" font-size="5px" font-weight="bold" font-family="'Helvetica Neue', Helvetica, Arial-Unicode, Arial, Sans-serif">from the Noun Project</text></svg>