<svg xmlns:dc="http://purl.org/dc/elements/1.1/" xmlns:cc="http://creativecommons.org/ns#" xmlns:rdf="http://www.w3.org/1999/02/22-rdf-syntax-ns#" xmlns:svg="http://www.w3.org/2000/svg" xmlns="http://www.w3.org/2000/svg" xmlns:sodipodi="http://sodipodi.sourceforge.net/DTD/sodipodi-0.dtd" xmlns:inkscape="http://www.inkscape.org/namespaces/inkscape" version="1.1" x="0px" y="0px" viewBox="0 0 100 125"><g transform="translate(0,-952.36218)"><g transform="translate(13.99592,968.86021)"><path d="m 54.992124,0 c -6.980314,11.019685 -9.992125,16.015748 -30.968503,14.988189 -3.011811,0 -8.007873,0 -8.007873,5.031496 1.984251,6.980315 10.771653,2.515748 20.976377,1.984252 4.003937,0 8.007874,0.992126 8.007874,4.003937 4.003937,-3.011811 3.011811,-7.015748 -8.007874,-7.015748 -6.980315,1.027559 -15.980315,3.011811 -15.980315,1.027559 0,-2.019685 0,-3.011811 3.011811,-3.011811 C 44.999999,18 52.015746,12.011811 54.992124,0 z M 4.0039369,29.019685 c 0,12.720472 4.3937006,21.082677 10.5236221,26.149606 2.622047,2.196851 5.562992,3.755906 8.610236,4.818898 l -22.21653519,0 c -0.42519683,0.03543 -0.8149606,0.389764 -0.88582674,0.81496 -0.10629921,0.389764 0.10629921,0.885827 0.49606298,1.062993 l 4.99606285,3.011811 c 0.1417323,0.07087 0.3188976,0.141732 0.496063,0.141732 l 7.3346451,0 0.744095,1.452756 c 0.177165,0.318897 0.531496,0.531496 0.92126,0.531496 l 38.976376,0 c 0.283465,0 0.531496,-0.106299 0.708662,-0.283465 l 1.73622,-1.700787 5.562992,0 c 0.141732,0 0.283465,-0.03543 0.425197,-0.106299 l 5.988189,-3.011811 c 0.425197,-0.177166 0.673228,-0.673229 0.566929,-1.133859 -0.106299,-0.425197 -0.531496,-0.779527 -0.992126,-0.779527 l -22.074803,0 c 2.799213,-1.062992 5.492126,-2.657481 7.972441,-4.854331 2.19685,-1.948819 4.181102,-4.358268 5.846457,-7.299213 2.905511,-0.531496 5.811023,-1.488188 8.07874,-2.976377 2.409448,-1.629922 4.181102,-3.968504 4.181102,-6.838583 0,-1.84252 -0.992126,-3.437008 -2.444882,-4.464567 -1.311024,-0.92126 -2.976378,-1.417323 -4.854331,-1.523622 0.1063,-0.956693 0.212599,-1.948819 0.283465,-2.976378 0.03543,-0.531496 -0.425197,-1.062992 -0.992126,-1.062992 l -58.9606281,0 c -1.027559,0 -1.027559,1.027559 -1.027559,1.027559 z m 60.4133841,5.031496 c 1.629921,0.03543 3.047244,0.46063 4.003937,1.133858 1.062992,0.744095 1.594488,1.665355 1.594488,2.834646 0,2.090551 -1.240158,3.755905 -3.330709,5.137795 -1.559055,1.062992 -3.614173,1.877953 -5.740157,2.409449 1.523622,-3.259843 2.728346,-7.086614 3.472441,-11.515748 z" style="" fill="#000000" fill-opacity="1" fill-rule="nonzero" stroke="none"/></g></g><text x="0" y="115" fill="#000000" font-size="5px" font-weight="bold" font-family="'Helvetica Neue', Helvetica, Arial-Unicode, Arial, Sans-serif">Created by AFY Studio</text><text x="0" y="120" fill="#000000" font-size="5px" font-weight="bold" font-family="'Helvetica Neue', Helvetica, Arial-Unicode, Arial, Sans-serif">from the Noun Project</text></svg>