<svg xmlns="http://www.w3.org/2000/svg" version="1.1" data-icon="home" data-container-transform="translate(0 3)" viewBox="0 0 128 160" x="0px" y="0px"><path d="M64 .625c-.413 0-.794.125-1.094.375l-61.813 54c-.6.6-.394 1 .406 1h9c.8 0 1.994-.4 2.594-1l49.719-42c.6-.5 1.681-.5 2.281 0l49.813 42c.6.6 1.794 1 2.594 1h9c.9 0 1.006-.5.406-1l-61.719-54c-.35-.25-.775-.375-1.188-.375zm.063 16c-.425 0-.856.125-1.156.375l-40.906 34-4.813 4c-.011.009-.02.022-.031.031-.675.599-1.145 1.653-1.156 2.438 0 .009 0 .022 0 .031l.188 60.5h37.813v-24h20v24h38v-60.5c0-.788-.473-1.863-1.156-2.469l-22.844-19.031-22.813-19c-.3-.25-.7-.375-1.125-.375z" transform="translate(0 3)"/><text x="0" y="143" fill="#000000" font-size="5px" font-weight="bold" font-family="'Helvetica Neue', Helvetica, Arial-Unicode, Arial, Sans-serif">Created by useiconic.com</text><text x="0" y="148" fill="#000000" font-size="5px" font-weight="bold" font-family="'Helvetica Neue', Helvetica, Arial-Unicode, Arial, Sans-serif">from the Noun Project</text></svg>