<svg xmlns="http://www.w3.org/2000/svg" viewBox="0 0 64 80" x="0px" y="0px"><g><path d="M53.07,39.56a11.35,11.35,0,0,1-6.43,5.68,12,12,0,0,1-4.5.72C40.9,49.84,36.79,52.57,32,52.57S23.1,49.84,21.86,46a11.65,11.65,0,0,1-4.5-.73,11.3,11.3,0,0,1-6.43-5.67,8.32,8.32,0,0,1-.38-6.4c1.24-3.43,4.73-5.64,8.89-5.64h0a1,1,0,0,1,1,1,1,1,0,0,1-1,1h0c-3.31,0-6.06,1.69-7,4.32a6.38,6.38,0,0,0,.31,4.87A9.31,9.31,0,0,0,18,43.36a9.81,9.81,0,0,0,4.47.55,1,1,0,0,1,1.09.8c.68,3.39,4.22,5.86,8.4,5.86s7.72-2.47,8.4-5.86a1,1,0,0,1,1.09-.8A9.75,9.75,0,0,0,46,43.36a9.3,9.3,0,0,0,5.31-4.65,6.34,6.34,0,0,0,.31-4.87c-1-2.63-3.7-4.32-7-4.32h-.05a1,1,0,0,1-1-1,1,1,0,0,1,1-1c4.14,0,7.69,2.2,8.94,5.64A8.32,8.32,0,0,1,53.07,39.56Zm-28.7-4h.13a1,1,0,0,0,1-.86l3-22.16a1,1,0,0,0-2-.26l-3,22.15A1,1,0,0,0,24.37,35.58Zm15.13,0h.13a1,1,0,0,0,.86-1.13l-3-22.15a1,1,0,0,0-2,.26l3,22.16A1,1,0,0,0,39.5,35.58ZM32,40.26a1,1,0,0,0,1-1V15.8a1,1,0,1,0-2,0V39.26A1,1,0,0,0,32,40.26Z"/></g><text x="0" y="79" fill="#000000" font-size="5px" font-weight="bold" font-family="'Helvetica Neue', Helvetica, Arial-Unicode, Arial, Sans-serif">Created by The Icon Z</text><text x="0" y="84" fill="#000000" font-size="5px" font-weight="bold" font-family="'Helvetica Neue', Helvetica, Arial-Unicode, Arial, Sans-serif">from the Noun Project</text></svg>